<svg xmlns="http://www.w3.org/2000/svg" xmlns:xlink="http://www.w3.org/1999/xlink" width="370.56" height="72.48" viewBox="0 0 277.92 54.36"><clipPath id="a"><path transform="matrix(1 0 0 -1 -66.1 617.17)" d="M0 .028h611.971v791.971H0z" fill-rule="evenodd"/></clipPath><g clip-path="url(#a)"><symbol id="b"><path d="M.155.667h-.06V0h.06v.667M0 0h.061v.667H0V0z"/></symbol><symbol id="c"><path d="M.411 0v.067H.302C.161.067.059.173.059.334.059.494.161.6.302.6h.109v.067H.302C.125.667 0 .531 0 .334S.125 0 .302 0h.109m0 .105v.067H.302C.214.172.153.227.153.334c0 .107.061.161.149.161h.109v.067H.302C.184.562.093.474.093.334c0-.141.091-.229.209-.229h.109z"/></symbol><symbol id="d"><path d="M.301.357v.067H.155v.071h.151v.067H.094V.357h.207M.305 0v.067H.061V.6h.245v.067H0V0h.305m0 .105v.067h-.15v.08h.146v.067H.094V.105h.211z"/></symbol><symbol id="e"><path d="M.227.358c.072 0 .117.04.117.106 0 .064-.035.098-.12.098h-.13V.358h.133M.231 0c.124 0 .214.093.214.215a.17.17 0 0 1-.054.128.178.178 0 0 1 .044.125c0 .128-.074.199-.224.199H0V0h.231M.223.105c.079 0 .13.045.13.106 0 .062-.054.11-.126.11H.094V.105h.129m.009.149C.27.254.288.239.288.213.288.185.27.172.232.172H.155v.082h.077M.231.497C.265.497.284.492.284.464S.265.425.231.425H.155v.072h.076M.278.339C.343.332.385.281.385.211.385.123.316.067.224.067H.06V.6h.162C.323.6.379.553.379.465.379.405.344.349.278.339z"/></symbol><symbol id="f"><path d="M.326 0c.176 0 .302.137.302.334S.502.667.326.667H.302C.125.667 0 .531 0 .334S.125 0 .302 0h.024M.059.334C.059.494.161.6.302.6h.024C.466.6.568.494.568.334.568.173.466.067.326.067H.302C.161.067.059.173.059.334m.267-.23c.118 0 .208.089.208.23 0 .14-.09.229-.208.229H.302C.184.563.093.474.093.334c0-.141.091-.23.209-.23h.024M.302.171C.214.171.153.227.153.334c0 .107.061.162.149.162h.024C.413.496.475.441.475.334.475.227.413.171.326.171H.302z"/></symbol><symbol id="g"><path d="M.25 0c.117 0 .202.086.202.214S.36.429.246.429h-.05a.033.033 0 0 0-.033.033c0 .017.009.033.033.033h.225v.067H.194C.136.562.1.523.1.462.1.401.145.363.198.363h.048A.144.144 0 0 0 .393.214C.393.122.331.067.25.067H.016V0H.25m0 .105c.058 0 .103.048.103.11a.112.112 0 0 1-.107.109H.198A.133.133 0 0 0 .06.463C.06.547.113.6.194.6h.227v.067H.194C.078.667 0 .585 0 .463 0 .341.084.257.198.257h.051a.04.04 0 0 0 .04-.042C.289.187.272.172.249.172H.016V.105H.25z"/></symbol><symbol id="h"><path d="M0 .668V.601h.429v.067H0M.232 0h.06v.496h.137v.067H.232V0M.138 0h.06v.563H0V.496h.138V0z"/></symbol><use xlink:href="#b" transform="matrix(72 0 0 -72 2.512 51.17)" fill="#0000d1"/><use xlink:href="#c" transform="matrix(72 0 0 -72 18.352 51.17)" fill="#0000d1"/><use xlink:href="#d" transform="matrix(72 0 0 -72 52.624 51.17)" fill="#0000d1"/><use xlink:href="#e" transform="matrix(72 0 0 -72 79.696 51.17)" fill="#0000d1"/><use xlink:href="#f" transform="matrix(72 0 0 -72 114.328 51.17)" fill="#0000d1"/><use xlink:href="#f" transform="matrix(72 0 0 -72 162.28 51.17)" fill="#0000d1"/><use xlink:href="#g" transform="matrix(72 0 0 -72 210.304 51.17)" fill="#0000d1"/><use xlink:href="#h" transform="matrix(72 0 0 -72 244.72 51.242)" fill="#0000d1"/></g></svg>